<svg xmlns="http://www.w3.org/2000/svg" xmlns:xlink="http://www.w3.org/1999/xlink" width="500" zoomAndPan="magnify" viewBox="0 0 375 374.999991" height="500" preserveAspectRatio="xMidYMid meet" version="1.0"><defs><clipPath id="a0364560ea"><path d="M 0 112.746094 L 375 112.746094 L 375 261.996094 L 0 261.996094 Z M 0 112.746094 " clip-rule="nonzero"/></clipPath></defs><g clip-path="url(#a0364560ea)"><path fill="#0058a3" d="M 0.617188 112.746094 L 0.617188 261.996094 L 374.382812 261.996094 L 374.382812 112.746094 Z M 0.617188 112.746094 " fill-opacity="1" fill-rule="nonzero"/></g><path fill="#ffdb00" d="M 7.855469 188.769531 C 7.855469 224.914062 83.078125 255 187.265625 255 C 291.453125 255 366.675781 224.914062 366.675781 188.769531 C 366.675781 152.621094 291.6875 122.539062 187.5 122.539062 C 83.3125 122.539062 7.855469 152.621094 7.855469 188.769531 Z M 7.855469 188.769531 " fill-opacity="1" fill-rule="nonzero"/><path fill="#0058a3" d="M 283.746094 214.65625 L 255.945312 214.65625 C 257.113281 213.253906 258.050781 211.625 258.515625 209.992188 L 275.101562 164.75 L 275.101562 164.515625 C 275.804688 163.117188 276.035156 161.484375 276.035156 159.851562 L 322.992188 159.851562 C 322.757812 161.25 322.992188 162.417969 323.691406 163.582031 C 323.691406 163.816406 323.925781 164.050781 323.925781 164.515625 C 325.328125 167.78125 340.277344 206.257812 341.445312 209.757812 C 341.914062 211.390625 342.847656 213.023438 344.015625 214.421875 L 308.976562 214.421875 C 308.976562 212.789062 308.742188 211.15625 307.808594 209.757812 C 307.808594 209.757812 307.339844 208.359375 306.40625 206.726562 L 306.171875 206.027344 L 285.847656 206.027344 L 285.613281 206.960938 C 285.613281 206.960938 284.914062 208.589844 284.445312 209.992188 L 284.210938 210.457031 C 283.980469 211.625 283.746094 213.253906 283.746094 214.65625 Z M 295.894531 178.273438 C 295.660156 179.441406 295.425781 180.605469 294.957031 181.773438 C 294.957031 182.007812 294.257812 183.640625 293.558594 185.972656 C 292.621094 188.304688 291.6875 191.335938 290.519531 194.597656 L 302.199219 194.597656 L 297.292969 182.007812 C 296.59375 180.605469 296.125 179.441406 295.894531 178.273438 Z M 126.996094 214.65625 L 93.355469 214.65625 C 94.058594 213.253906 94.292969 211.625 94.058594 209.992188 L 94.058594 164.75 C 94.292969 163.117188 93.824219 161.484375 93.355469 160.085938 L 126.996094 160.085938 C 126.296875 161.484375 126.0625 163.117188 126.296875 164.75 L 126.296875 184.570312 C 126.296875 184.570312 137.042969 170.8125 139.609375 167.546875 C 140.546875 166.382812 143.816406 161.949219 143.816406 160.085938 L 178.855469 160.085938 C 176.054688 162.183594 173.71875 164.515625 171.613281 167.082031 C 169.746094 169.414062 158.765625 182.472656 158.765625 182.472656 C 158.765625 182.472656 174.886719 206.492188 176.988281 209.992188 C 178.15625 211.625 179.558594 213.253906 180.957031 214.65625 L 140.3125 214.65625 C 139.84375 212.089844 138.675781 209.523438 137.042969 207.425781 C 135.40625 205.09375 126.996094 192.5 126.0625 191.101562 L 126.0625 210.222656 C 126.0625 211.390625 126.296875 213.023438 126.996094 214.65625 Z M 251.742188 214.65625 L 186.566406 214.65625 C 187.265625 213.253906 187.5 211.625 187.265625 209.992188 L 187.265625 164.75 C 187.5 163.117188 187.03125 161.484375 186.566406 160.085938 L 251.507812 160.085938 L 251.507812 175.242188 C 250.105469 174.542969 248.472656 174.3125 246.835938 174.542969 L 219.503906 174.542969 L 219.503906 181.773438 L 245.902344 181.773438 L 245.902344 193.433594 L 219.503906 193.433594 L 219.503906 200.664062 L 246.835938 200.664062 C 248.472656 200.894531 250.105469 200.429688 251.507812 199.964844 Z M 77.238281 214.65625 L 40.796875 214.65625 C 41.496094 213.253906 41.730469 211.625 41.496094 209.992188 L 41.496094 164.75 C 41.730469 163.117188 41.261719 161.484375 40.796875 160.085938 L 77.472656 160.085938 C 76.769531 161.484375 76.539062 163.117188 76.769531 164.75 L 76.769531 209.992188 C 76.304688 211.390625 76.769531 213.023438 77.238281 214.65625 Z M 337.707031 171.746094 C 335.605469 171.746094 333.738281 170.8125 332.335938 169.414062 C 330.933594 168.015625 330.234375 166.148438 330.46875 164.28125 C 330.46875 164.050781 330.46875 164.050781 330.46875 163.816406 C 330.46875 160.085938 333.738281 157.054688 337.476562 157.054688 L 337.941406 157.054688 C 341.914062 157.054688 344.949219 160.320312 344.949219 164.28125 L 344.949219 164.75 C 344.949219 166.613281 344.015625 168.480469 342.847656 169.648438 C 341.445312 170.8125 339.578125 171.746094 337.707031 171.746094 Z M 337.242188 158.453125 C 335.839844 158.453125 334.4375 159.152344 333.269531 160.320312 C 332.335938 161.484375 331.636719 162.882812 331.867188 164.28125 L 331.867188 164.75 C 331.867188 167.78125 334.4375 170.347656 337.707031 170.347656 L 337.941406 170.347656 C 339.578125 170.347656 340.980469 169.648438 342.148438 168.480469 C 343.316406 167.316406 343.78125 165.914062 343.78125 164.28125 L 343.78125 164.050781 C 343.78125 161.019531 341.210938 158.453125 337.941406 158.453125 Z M 336.308594 168.480469 L 334.90625 168.480469 L 334.90625 159.851562 L 338.175781 159.851562 C 339.8125 159.851562 340.980469 161.019531 340.980469 162.652344 C 340.980469 163.816406 340.277344 164.75 339.34375 165.214844 L 341.210938 168.480469 L 339.8125 168.480469 L 338.175781 165.449219 L 336.308594 165.449219 Z M 336.308594 161.25 L 336.308594 164.28125 L 338.175781 164.28125 C 338.875 164.28125 339.578125 163.582031 339.578125 162.882812 C 339.578125 161.949219 338.875 161.25 338.175781 161.25 Z M 336.308594 161.25 " fill-opacity="1" fill-rule="nonzero"/></svg>