<svg xmlns="http://www.w3.org/2000/svg" xmlns:xlink="http://www.w3.org/1999/xlink" width="500" zoomAndPan="magnify" viewBox="0 0 375 225" height="300" preserveAspectRatio="xMidYMid meet" version="1.0"><path fill="#000000" d="M 187.566406 0 C 218.542969 0 246.75 12.652344 267.046875 32.953125 C 287.347656 53.382812 300 81.457031 300 112.566406 C 300 143.542969 287.347656 171.75 267.046875 192.046875 C 246.75 212.347656 218.542969 225 187.566406 225 C 156.457031 225 128.382812 212.347656 107.953125 192.046875 C 87.652344 171.75 75 143.542969 75 112.566406 C 75 81.457031 87.652344 53.382812 107.953125 32.953125 C 128.382812 12.652344 156.457031 0 187.566406 0 Z M 263.355469 36.773438 C 243.980469 17.265625 217.089844 5.273438 187.566406 5.273438 C 157.910156 5.273438 131.152344 17.265625 111.773438 36.773438 C 92.265625 56.152344 80.273438 82.910156 80.273438 112.566406 C 80.273438 142.089844 92.265625 168.980469 111.773438 188.355469 C 131.152344 207.734375 157.910156 219.726562 187.566406 219.726562 C 217.089844 219.726562 243.980469 207.734375 263.355469 188.355469 C 282.734375 168.980469 294.726562 142.089844 294.726562 112.566406 C 294.726562 82.910156 282.734375 56.152344 263.355469 36.773438 Z M 263.355469 36.773438 " fill-opacity="1" fill-rule="nonzero"/><path fill="#000000" d="M 120.871094 42.179688 L 256.765625 110.191406 L 255.578125 112.566406 L 256.765625 110.191406 C 258.085938 110.851562 258.613281 112.433594 257.953125 113.753906 C 257.6875 114.28125 257.160156 114.808594 256.503906 115.070312 L 120.605469 182.953125 L 119.421875 180.578125 L 120.605469 182.953125 C 119.289062 183.613281 117.707031 183.085938 117.046875 181.765625 C 116.914062 181.371094 116.785156 180.976562 116.785156 180.578125 L 116.785156 44.421875 C 116.785156 42.96875 117.96875 41.785156 119.421875 41.785156 C 119.949219 41.785156 120.472656 41.914062 120.871094 42.179688 Z M 249.78125 112.566406 L 122.054688 48.636719 L 122.054688 176.363281 Z M 256.503906 115.070312 C 255.84375 115.203125 255.050781 115.203125 254.394531 114.9375 Z M 256.503906 115.070312 " fill-opacity="1" fill-rule="nonzero"/><path fill="#000000" d="M 121.527344 42.707031 L 201.40625 138.929688 L 197.453125 142.355469 L 117.441406 46.132812 Z M 121.527344 42.707031 " fill-opacity="1" fill-rule="nonzero"/><path fill="#000000" d="M 201.40625 86.070312 L 121.527344 182.292969 L 117.441406 178.867188 L 197.453125 82.777344 Z M 201.40625 86.070312 " fill-opacity="1" fill-rule="nonzero"/><path fill="#5d9990" d="M 122.054688 173.332031 L 172.671875 112.566406 L 122.054688 51.667969 Z M 122.054688 173.332031 " fill-opacity="1" fill-rule="evenodd"/><path fill="#fd9596" d="M 176.097656 108.480469 L 195.210938 85.28125 L 129.4375 52.460938 Z M 176.097656 108.480469 " fill-opacity="1" fill-rule="evenodd"/><path fill="#fffdac" d="M 200.085938 137.347656 L 249.78125 112.566406 L 200.085938 87.652344 L 179.394531 112.566406 Z M 200.085938 137.347656 " fill-opacity="1" fill-rule="evenodd"/><path fill="#ffb586" d="M 129.4375 172.671875 L 195.210938 139.71875 L 176.097656 116.652344 Z M 129.4375 172.671875 " fill-opacity="1" fill-rule="evenodd"/><path fill="#99d9fa" d="M 263.355469 188.355469 C 282.734375 168.980469 294.726562 142.089844 294.726562 112.566406 C 294.726562 82.910156 282.734375 56.152344 263.355469 36.773438 C 243.980469 17.265625 217.089844 5.273438 187.566406 5.273438 C 157.910156 5.273438 131.152344 17.265625 111.773438 36.773438 C 92.265625 56.152344 80.273438 82.910156 80.273438 112.566406 C 80.273438 142.089844 92.265625 168.980469 111.773438 188.355469 C 131.152344 207.734375 157.910156 219.726562 187.566406 219.726562 C 217.089844 219.726562 243.980469 207.734375 263.355469 188.355469 Z M 120.871094 42.179688 L 256.765625 110.191406 C 258.085938 110.851562 258.613281 112.433594 257.953125 113.753906 C 257.6875 114.28125 257.160156 114.808594 256.503906 115.070312 L 120.605469 182.953125 C 119.289062 183.613281 117.707031 183.085938 117.046875 181.765625 C 116.914062 181.371094 116.785156 180.976562 116.785156 180.578125 L 116.785156 44.421875 C 116.785156 42.96875 117.96875 41.785156 119.421875 41.785156 C 119.949219 41.785156 120.472656 41.914062 120.871094 42.179688 Z M 120.871094 42.179688 " fill-opacity="1" fill-rule="evenodd"/></svg>